<svg width="64" height="61" viewBox="0 0 64 61" fill="none" xmlns="http://www.w3.org/2000/svg">
<g filter="url(#filter0_d)">
<path d="M57 28C57 42.8951 44.7046 55 29.5 55C14.2954 55 2 42.8951 2 28C2 13.1049 14.2954 1 29.5 1C44.7046 1 57 13.1049 57 28Z" stroke="url(#paint0_linear)" stroke-width="2"/>
</g>
<g filter="url(#filter1_d)">
<mask id="path-2-inside-1" fill="white">
<path fill-rule="evenodd" clip-rule="evenodd" d="M56.9476 8.82504C55.3879 6.12355 51.9335 5.19795 49.232 6.75766L36.116 14.3302C35.8883 14.3048 35.6569 14.2918 35.4225 14.2918L12.0227 14.2918C10.7897 14.2918 9.65583 14.9673 9.06875 16.0515C8.02192 17.9848 9.08368 20.3859 11.2182 20.9124L20.6751 23.245L10.1429 29.3258L3.0905 28.2095L0 31.3001L6.09656 37.3966C6.18503 37.6036 6.28681 37.8076 6.40219 38.0074C7.96189 40.7089 11.4163 41.6345 14.1178 40.0748L29.61 31.1304L29.0058 48.0329C28.9254 50.281 31.0451 51.9642 33.2164 51.3765C34.3655 51.0655 35.2622 50.1666 35.5702 49.0168L42.2247 24.182C42.2593 24.053 42.2895 23.9239 42.3156 23.7948L54.8802 16.5406C57.5817 14.9809 58.5073 11.5265 56.9476 8.82504Z"/>
</mask>
<path fill-rule="evenodd" clip-rule="evenodd" d="M56.9476 8.82504C55.3879 6.12355 51.9335 5.19795 49.232 6.75766L36.116 14.3302C35.8883 14.3048 35.6569 14.2918 35.4225 14.2918L12.0227 14.2918C10.7897 14.2918 9.65583 14.9673 9.06875 16.0515C8.02192 17.9848 9.08368 20.3859 11.2182 20.9124L20.6751 23.245L10.1429 29.3258L3.0905 28.2095L0 31.3001L6.09656 37.3966C6.18503 37.6036 6.28681 37.8076 6.40219 38.0074C7.96189 40.7089 11.4163 41.6345 14.1178 40.0748L29.61 31.1304L29.0058 48.0329C28.9254 50.281 31.0451 51.9642 33.2164 51.3765C34.3655 51.0655 35.2622 50.1666 35.5702 49.0168L42.2247 24.182C42.2593 24.053 42.2895 23.9239 42.3156 23.7948L54.8802 16.5406C57.5817 14.9809 58.5073 11.5265 56.9476 8.82504Z" fill="url(#paint1_linear)"/>
<path d="M49.232 6.75766L48.732 5.89163L48.732 5.89163L49.232 6.75766ZM56.9476 8.82504L57.8136 8.32504L57.8136 8.32504L56.9476 8.82504ZM36.116 14.3302L36.0054 15.324L36.3317 15.3603L36.616 15.1962L36.116 14.3302ZM35.4225 14.2918L35.4225 15.2918H35.4225V14.2918ZM12.0227 14.2918L12.0227 13.2918H12.0227V14.2918ZM9.06875 16.0515L8.18939 15.5753L8.18939 15.5753L9.06875 16.0515ZM11.2182 20.9124L10.9787 21.8833L10.9787 21.8833L11.2182 20.9124ZM20.6751 23.245L21.1751 24.111L23.3264 22.869L20.9146 22.2741L20.6751 23.245ZM10.1429 29.3258L9.98656 30.3135L10.3363 30.3688L10.6429 30.1918L10.1429 29.3258ZM3.0905 28.2095L3.24683 27.2218L2.74364 27.1422L2.3834 27.5024L3.0905 28.2095ZM0 31.3001L-0.707107 30.5929L-1.41421 31.3001L-0.707107 32.0072L0 31.3001ZM6.09656 37.3966L7.01611 37.0036L6.94022 36.8261L6.80367 36.6895L6.09656 37.3966ZM6.40219 38.0074L5.53616 38.5074L5.53616 38.5074L6.40219 38.0074ZM14.1178 40.0748L14.6178 40.9408L14.6178 40.9408L14.1178 40.0748ZM29.61 31.1304L30.6094 31.1661L30.6739 29.3614L29.11 30.2643L29.61 31.1304ZM29.0058 48.0329L30.0051 48.0687L30.0051 48.0687L29.0058 48.0329ZM33.2164 51.3765L32.9552 50.4112L32.9552 50.4112L33.2164 51.3765ZM35.5702 49.0168L36.5362 49.2756L36.5362 49.2756L35.5702 49.0168ZM42.2247 24.182L41.2588 23.9232L41.2588 23.9232L42.2247 24.182ZM42.3156 23.7948L41.8156 22.9288L41.4247 23.1545L41.3354 23.5969L42.3156 23.7948ZM54.8802 16.5406L54.3802 15.6746L54.3802 15.6746L54.8802 16.5406ZM49.732 7.62368C51.9552 6.34012 54.798 7.10184 56.0815 9.32504L57.8136 8.32504C55.9777 5.14526 51.9118 4.05578 48.732 5.89163L49.732 7.62368ZM36.616 15.1962L49.732 7.62368L48.732 5.89163L35.616 13.4641L36.616 15.1962ZM35.4225 15.2918C35.6199 15.2918 35.8144 15.3028 36.0054 15.324L36.2266 13.3363C35.9622 13.3069 35.6939 13.2918 35.4225 13.2918V15.2918ZM12.0227 15.2918L35.4225 15.2918L35.4225 13.2918L12.0227 13.2918L12.0227 15.2918ZM9.94811 16.5277C10.3604 15.7662 11.1567 15.2918 12.0227 15.2918V13.2918C10.4227 13.2918 8.95124 14.1684 8.18939 15.5753L9.94811 16.5277ZM11.4577 19.9415C9.9586 19.5717 9.21292 17.8854 9.94811 16.5277L8.18939 15.5753C6.83092 18.0842 8.20876 21.2 10.9787 21.8833L11.4577 19.9415ZM20.9146 22.2741L11.4577 19.9415L10.9787 21.8833L20.4356 24.2159L20.9146 22.2741ZM10.6429 30.1918L21.1751 24.111L20.1751 22.3789L9.64289 28.4597L10.6429 30.1918ZM2.93418 29.1973L9.98656 30.3135L10.2992 28.338L3.24683 27.2218L2.93418 29.1973ZM0.707107 32.0072L3.79761 28.9167L2.3834 27.5024L-0.707107 30.5929L0.707107 32.0072ZM6.80367 36.6895L0.707107 30.5929L-0.707107 32.0072L5.38945 38.1037L6.80367 36.6895ZM7.26821 37.5074C7.17284 37.3422 7.08892 37.174 7.01611 37.0036L5.17701 37.7896C5.28113 38.0332 5.40077 38.2729 5.53616 38.5074L7.26821 37.5074ZM13.6178 39.2088C11.3946 40.4924 8.55178 39.7306 7.26821 37.5074L5.53616 38.5074C7.37201 41.6872 11.438 42.7767 14.6178 40.9408L13.6178 39.2088ZM29.11 30.2643L13.6178 39.2088L14.6178 40.9408L30.11 31.9964L29.11 30.2643ZM30.0051 48.0687L30.6094 31.1661L28.6107 31.0946L28.0064 47.9972L30.0051 48.0687ZM32.9552 50.4112C31.4339 50.823 29.9488 49.6437 30.0051 48.0687L28.0064 47.9972C27.902 50.9183 30.6563 53.1054 33.4777 52.3418L32.9552 50.4112ZM34.6043 48.758C34.3885 49.5635 33.7602 50.1934 32.9552 50.4112L33.4777 52.3418C34.9707 51.9377 36.1358 50.7696 36.5362 49.2756L34.6043 48.758ZM41.2588 23.9232L34.6043 48.758L36.5362 49.2756L43.1906 24.4408L41.2588 23.9232ZM41.3354 23.5969C41.3134 23.7056 41.2879 23.8144 41.2588 23.9232L43.1906 24.4408C43.2306 24.2917 43.2656 24.1422 43.2958 23.9927L41.3354 23.5969ZM54.3802 15.6746L41.8156 22.9288L42.8156 24.6608L55.3802 17.4067L54.3802 15.6746ZM56.0815 9.32504C57.3651 11.5482 56.6034 14.391 54.3802 15.6746L55.3802 17.4067C58.56 15.5708 59.6494 11.5048 57.8136 8.32504L56.0815 9.32504Z" fill="black" mask="url(#path-2-inside-1)"/>
</g>
<defs>
<filter id="filter0_d" x="1" y="0" width="62" height="61" filterUnits="userSpaceOnUse" color-interpolation-filters="sRGB">
<feFlood flood-opacity="0" result="BackgroundImageFix"/>
<feColorMatrix in="SourceAlpha" type="matrix" values="0 0 0 0 0 0 0 0 0 0 0 0 0 0 0 0 0 0 127 0"/>
<feOffset dx="3" dy="3"/>
<feGaussianBlur stdDeviation="1"/>
<feColorMatrix type="matrix" values="0 0 0 0 0 0 0 0 0 0 0 0 0 0 0 0 0 0 0.44 0"/>
<feBlend mode="normal" in2="BackgroundImageFix" result="effect1_dropShadow"/>
<feBlend mode="normal" in="SourceGraphic" in2="effect1_dropShadow" result="shape"/>
</filter>
<filter id="filter1_d" x="0" y="6" width="63.7052" height="51.4946" filterUnits="userSpaceOnUse" color-interpolation-filters="sRGB">
<feFlood flood-opacity="0" result="BackgroundImageFix"/>
<feColorMatrix in="SourceAlpha" type="matrix" values="0 0 0 0 0 0 0 0 0 0 0 0 0 0 0 0 0 0 127 0"/>
<feOffset dx="3" dy="3"/>
<feGaussianBlur stdDeviation="1.5"/>
<feColorMatrix type="matrix" values="0 0 0 0 0 0 0 0 0 0 0 0 0 0 0 0 0 0 0.79 0"/>
<feBlend mode="normal" in2="BackgroundImageFix" result="effect1_dropShadow"/>
<feBlend mode="normal" in="SourceGraphic" in2="effect1_dropShadow" result="shape"/>
</filter>
<linearGradient id="paint0_linear" x1="98" y1="0" x2="-18" y2="0" gradientUnits="userSpaceOnUse">
<stop stop-color="#FF0000"/>
<stop offset="1" stop-color="#FFB800" stop-opacity="0.54"/>
</linearGradient>
<linearGradient id="paint1_linear" x1="77" y1="-30.3379" x2="-41" y2="5.66211" gradientUnits="userSpaceOnUse">
<stop stop-color="#FF0000"/>
<stop offset="1" stop-color="#FFC700"/>
</linearGradient>
</defs>
</svg>
