<svg width="229" height="61" viewBox="0 0 229 61" fill="none" xmlns="http://www.w3.org/2000/svg">
<g filter="url(#filter0_d)">
<path d="M57 28C57 42.8951 44.7046 55 29.5 55C14.2954 55 2 42.8951 2 28C2 13.1049 14.2954 1 29.5 1C44.7046 1 57 13.1049 57 28Z" stroke="url(#paint0_linear)" stroke-width="2"/>
</g>
<g filter="url(#filter1_d)">
<mask id="path-2-inside-1" fill="white">
<path fill-rule="evenodd" clip-rule="evenodd" d="M56.9476 8.82504C55.3879 6.12355 51.9335 5.19795 49.232 6.75766L36.116 14.3302C35.8883 14.3048 35.6569 14.2918 35.4225 14.2918L12.0227 14.2918C10.7897 14.2918 9.65583 14.9673 9.06875 16.0515C8.02192 17.9848 9.08368 20.3859 11.2182 20.9124L20.6751 23.245L10.1429 29.3258L3.0905 28.2095L0 31.3001L6.09656 37.3966C6.18503 37.6036 6.28681 37.8076 6.40219 38.0074C7.96189 40.7089 11.4163 41.6345 14.1178 40.0748L29.61 31.1304L29.0058 48.0329C28.9254 50.281 31.0451 51.9642 33.2164 51.3765C34.3655 51.0655 35.2622 50.1666 35.5702 49.0168L42.2247 24.182C42.2593 24.053 42.2895 23.9239 42.3156 23.7948L54.8802 16.5406C57.5817 14.9809 58.5073 11.5265 56.9476 8.82504Z"/>
</mask>
<path fill-rule="evenodd" clip-rule="evenodd" d="M56.9476 8.82504C55.3879 6.12355 51.9335 5.19795 49.232 6.75766L36.116 14.3302C35.8883 14.3048 35.6569 14.2918 35.4225 14.2918L12.0227 14.2918C10.7897 14.2918 9.65583 14.9673 9.06875 16.0515C8.02192 17.9848 9.08368 20.3859 11.2182 20.9124L20.6751 23.245L10.1429 29.3258L3.0905 28.2095L0 31.3001L6.09656 37.3966C6.18503 37.6036 6.28681 37.8076 6.40219 38.0074C7.96189 40.7089 11.4163 41.6345 14.1178 40.0748L29.61 31.1304L29.0058 48.0329C28.9254 50.281 31.0451 51.9642 33.2164 51.3765C34.3655 51.0655 35.2622 50.1666 35.5702 49.0168L42.2247 24.182C42.2593 24.053 42.2895 23.9239 42.3156 23.7948L54.8802 16.5406C57.5817 14.9809 58.5073 11.5265 56.9476 8.82504Z" fill="url(#paint1_linear)"/>
<path d="M49.232 6.75766L48.732 5.89163L48.732 5.89163L49.232 6.75766ZM56.9476 8.82504L57.8136 8.32504L57.8136 8.32504L56.9476 8.82504ZM36.116 14.3302L36.0054 15.324L36.3317 15.3603L36.616 15.1962L36.116 14.3302ZM35.4225 14.2918L35.4225 15.2918H35.4225V14.2918ZM12.0227 14.2918L12.0227 13.2918H12.0227V14.2918ZM9.06875 16.0515L8.18939 15.5753L8.18939 15.5753L9.06875 16.0515ZM11.2182 20.9124L10.9787 21.8833L10.9787 21.8833L11.2182 20.9124ZM20.6751 23.245L21.1751 24.111L23.3264 22.869L20.9146 22.2741L20.6751 23.245ZM10.1429 29.3258L9.98656 30.3135L10.3363 30.3688L10.6429 30.1918L10.1429 29.3258ZM3.0905 28.2095L3.24683 27.2218L2.74364 27.1422L2.3834 27.5024L3.0905 28.2095ZM0 31.3001L-0.707107 30.5929L-1.41421 31.3001L-0.707107 32.0072L0 31.3001ZM6.09656 37.3966L7.01611 37.0036L6.94022 36.8261L6.80367 36.6895L6.09656 37.3966ZM6.40219 38.0074L5.53616 38.5074L5.53616 38.5074L6.40219 38.0074ZM14.1178 40.0748L14.6178 40.9408L14.6178 40.9408L14.1178 40.0748ZM29.61 31.1304L30.6094 31.1661L30.6739 29.3614L29.11 30.2643L29.61 31.1304ZM29.0058 48.0329L30.0051 48.0687L30.0051 48.0687L29.0058 48.0329ZM33.2164 51.3765L32.9552 50.4112L32.9552 50.4112L33.2164 51.3765ZM35.5702 49.0168L36.5362 49.2756L36.5362 49.2756L35.5702 49.0168ZM42.2247 24.182L41.2588 23.9232L41.2588 23.9232L42.2247 24.182ZM42.3156 23.7948L41.8156 22.9288L41.4247 23.1545L41.3354 23.5969L42.3156 23.7948ZM54.8802 16.5406L54.3802 15.6746L54.3802 15.6746L54.8802 16.5406ZM49.732 7.62368C51.9552 6.34012 54.798 7.10184 56.0815 9.32504L57.8136 8.32504C55.9777 5.14526 51.9118 4.05578 48.732 5.89163L49.732 7.62368ZM36.616 15.1962L49.732 7.62368L48.732 5.89163L35.616 13.4641L36.616 15.1962ZM35.4225 15.2918C35.6199 15.2918 35.8144 15.3028 36.0054 15.324L36.2266 13.3363C35.9622 13.3069 35.6939 13.2918 35.4225 13.2918V15.2918ZM12.0227 15.2918L35.4225 15.2918L35.4225 13.2918L12.0227 13.2918L12.0227 15.2918ZM9.94811 16.5277C10.3604 15.7662 11.1567 15.2918 12.0227 15.2918V13.2918C10.4227 13.2918 8.95124 14.1684 8.18939 15.5753L9.94811 16.5277ZM11.4577 19.9415C9.9586 19.5717 9.21292 17.8854 9.94811 16.5277L8.18939 15.5753C6.83092 18.0842 8.20876 21.2 10.9787 21.8833L11.4577 19.9415ZM20.9146 22.2741L11.4577 19.9415L10.9787 21.8833L20.4356 24.2159L20.9146 22.2741ZM10.6429 30.1918L21.1751 24.111L20.1751 22.3789L9.64289 28.4597L10.6429 30.1918ZM2.93418 29.1973L9.98656 30.3135L10.2992 28.338L3.24683 27.2218L2.93418 29.1973ZM0.707107 32.0072L3.79761 28.9167L2.3834 27.5024L-0.707107 30.5929L0.707107 32.0072ZM6.80367 36.6895L0.707107 30.5929L-0.707107 32.0072L5.38945 38.1037L6.80367 36.6895ZM7.26821 37.5074C7.17284 37.3422 7.08892 37.174 7.01611 37.0036L5.17701 37.7896C5.28113 38.0332 5.40077 38.2729 5.53616 38.5074L7.26821 37.5074ZM13.6178 39.2088C11.3946 40.4924 8.55178 39.7306 7.26821 37.5074L5.53616 38.5074C7.37201 41.6872 11.438 42.7767 14.6178 40.9408L13.6178 39.2088ZM29.11 30.2643L13.6178 39.2088L14.6178 40.9408L30.11 31.9964L29.11 30.2643ZM30.0051 48.0687L30.6094 31.1661L28.6107 31.0946L28.0064 47.9972L30.0051 48.0687ZM32.9552 50.4112C31.4339 50.823 29.9488 49.6437 30.0051 48.0687L28.0064 47.9972C27.902 50.9183 30.6563 53.1054 33.4777 52.3418L32.9552 50.4112ZM34.6043 48.758C34.3885 49.5635 33.7602 50.1934 32.9552 50.4112L33.4777 52.3418C34.9707 51.9377 36.1358 50.7696 36.5362 49.2756L34.6043 48.758ZM41.2588 23.9232L34.6043 48.758L36.5362 49.2756L43.1906 24.4408L41.2588 23.9232ZM41.3354 23.5969C41.3134 23.7056 41.2879 23.8144 41.2588 23.9232L43.1906 24.4408C43.2306 24.2917 43.2656 24.1422 43.2958 23.9927L41.3354 23.5969ZM54.3802 15.6746L41.8156 22.9288L42.8156 24.6608L55.3802 17.4067L54.3802 15.6746ZM56.0815 9.32504C57.3651 11.5482 56.6034 14.391 54.3802 15.6746L55.3802 17.4067C58.56 15.5708 59.6494 11.5048 57.8136 8.32504L56.0815 9.32504Z" fill="black" mask="url(#path-2-inside-1)"/>
</g>
<g filter="url(#filter2_d)">
<path d="M73.6364 36.25C72.2531 36.25 71.0531 36.0333 70.0364 35.6C69.0364 35.1667 68.2698 34.6 67.7364 33.9C67.2031 33.1833 66.9198 32.4167 66.8864 31.6C66.8864 31.4667 66.9364 31.35 67.0364 31.25C67.1531 31.1333 67.2864 31.075 67.4364 31.075H68.7114C69.0281 31.075 69.2448 31.2417 69.3614 31.575C69.5114 32.275 69.9364 32.875 70.6364 33.375C71.3531 33.875 72.3531 34.125 73.6364 34.125C75.0198 34.125 76.0614 33.8833 76.7614 33.4C77.4614 32.9 77.8114 32.2083 77.8114 31.325C77.8114 30.7583 77.6364 30.3 77.2864 29.95C76.9531 29.6 76.4531 29.2917 75.7864 29.025C75.1198 28.7583 74.1198 28.425 72.7864 28.025C71.4864 27.6583 70.4531 27.2667 69.6864 26.85C68.9198 26.4333 68.3448 25.9167 67.9614 25.3C67.5781 24.6833 67.3864 23.9083 67.3864 22.975C67.3864 22.075 67.6281 21.2667 68.1114 20.55C68.6114 19.8333 69.3198 19.275 70.2364 18.875C71.1531 18.4583 72.2448 18.25 73.5114 18.25C74.8114 18.25 75.9281 18.4833 76.8614 18.95C77.7948 19.4 78.5031 19.975 78.9864 20.675C79.4698 21.375 79.7281 22.075 79.7614 22.775C79.7614 22.9083 79.7114 23.025 79.6114 23.125C79.5281 23.225 79.4031 23.275 79.2364 23.275H77.9114C77.5614 23.275 77.3448 23.1167 77.2614 22.8C77.1614 22.1 76.7698 21.525 76.0864 21.075C75.4031 20.6083 74.5448 20.375 73.5114 20.375C72.3781 20.375 71.4864 20.5917 70.8364 21.025C70.1864 21.4583 69.8614 22.1 69.8614 22.95C69.8614 23.5167 70.0114 23.9833 70.3114 24.35C70.6281 24.7167 71.1031 25.0417 71.7364 25.325C72.3698 25.5917 73.2948 25.9 74.5114 26.25C75.9281 26.6333 77.0448 27.0333 77.8614 27.45C78.6781 27.85 79.2864 28.3583 79.6864 28.975C80.0864 29.575 80.2864 30.3417 80.2864 31.275C80.2864 32.825 79.6864 34.0417 78.4864 34.925C77.2864 35.8083 75.6698 36.25 73.6364 36.25ZM88.0882 36.25C86.5049 36.25 85.2799 35.7417 84.4132 34.725C83.5465 33.6917 83.1132 32.325 83.1132 30.625V23.575C83.1132 23.4083 83.1632 23.275 83.2632 23.175C83.3799 23.0583 83.5215 23 83.6882 23H84.9382C85.1049 23 85.2382 23.0583 85.3382 23.175C85.4549 23.275 85.5132 23.4083 85.5132 23.575V30.5C85.5132 32.9833 86.5965 34.225 88.7632 34.225C89.8132 34.225 90.6465 33.9 91.2632 33.25C91.8799 32.5833 92.1882 31.6667 92.1882 30.5V23.575C92.1882 23.4083 92.2382 23.275 92.3382 23.175C92.4549 23.0583 92.5965 23 92.7632 23H94.0132C94.1799 23 94.3132 23.0583 94.4132 23.175C94.5132 23.275 94.5632 23.4083 94.5632 23.575V35.425C94.5632 35.5917 94.5132 35.7333 94.4132 35.85C94.3132 35.95 94.1799 36 94.0132 36H92.8382C92.6715 36 92.5299 35.95 92.4132 35.85C92.3132 35.7333 92.2632 35.5917 92.2632 35.425V34.325C91.7965 34.9583 91.2299 35.4417 90.5632 35.775C89.8965 36.0917 89.0715 36.25 88.0882 36.25ZM98.8772 40.75C98.7106 40.75 98.5689 40.6917 98.4522 40.575C98.3522 40.475 98.3022 40.3417 98.3022 40.175V23.575C98.3022 23.4083 98.3522 23.275 98.4522 23.175C98.5689 23.0583 98.7106 23 98.8772 23H100.027C100.194 23 100.327 23.0583 100.427 23.175C100.544 23.275 100.602 23.4083 100.602 23.575V24.675C101.536 23.3917 102.902 22.75 104.702 22.75C106.452 22.75 107.761 23.3 108.627 24.4C109.511 25.5 109.986 26.9167 110.052 28.65C110.069 28.8333 110.077 29.1167 110.077 29.5C110.077 29.8833 110.069 30.1667 110.052 30.35C109.986 32.0667 109.511 33.4833 108.627 34.6C107.744 35.7 106.436 36.25 104.702 36.25C102.969 36.25 101.619 35.625 100.652 34.375V40.175C100.652 40.3417 100.602 40.475 100.502 40.575C100.402 40.6917 100.269 40.75 100.102 40.75H98.8772ZM104.177 34.225C105.361 34.225 106.219 33.8583 106.752 33.125C107.302 32.3917 107.602 31.425 107.652 30.225C107.669 30.0583 107.677 29.8167 107.677 29.5C107.677 26.35 106.511 24.775 104.177 24.775C103.027 24.775 102.161 25.1583 101.577 25.925C101.011 26.675 100.702 27.575 100.652 28.625L100.627 29.575L100.652 30.55C100.686 31.5333 101.002 32.3917 101.602 33.125C102.202 33.8583 103.061 34.225 104.177 34.225ZM118.37 36.25C116.653 36.25 115.278 35.725 114.245 34.675C113.228 33.6083 112.67 32.1583 112.57 30.325L112.545 29.475L112.57 28.65C112.686 26.85 113.253 25.4167 114.27 24.35C115.303 23.2833 116.661 22.75 118.345 22.75C120.195 22.75 121.628 23.3417 122.645 24.525C123.661 25.6917 124.17 27.275 124.17 29.275V29.7C124.17 29.8667 124.111 30.0083 123.995 30.125C123.895 30.225 123.761 30.275 123.595 30.275H114.945V30.5C114.995 31.5833 115.32 32.5083 115.92 33.275C116.536 34.025 117.345 34.4 118.345 34.4C119.111 34.4 119.736 34.25 120.22 33.95C120.72 33.6333 121.086 33.3083 121.32 32.975C121.47 32.775 121.578 32.6583 121.645 32.625C121.728 32.575 121.87 32.55 122.07 32.55H123.295C123.445 32.55 123.57 32.5917 123.67 32.675C123.77 32.7583 123.82 32.875 123.82 33.025C123.82 33.3917 123.586 33.8333 123.12 34.35C122.67 34.8667 122.028 35.3167 121.195 35.7C120.378 36.0667 119.436 36.25 118.37 36.25ZM121.795 28.55V28.475C121.795 27.325 121.478 26.3917 120.845 25.675C120.228 24.9417 119.395 24.575 118.345 24.575C117.295 24.575 116.461 24.9417 115.845 25.675C115.245 26.3917 114.945 27.325 114.945 28.475V28.55H121.795ZM127.734 36C127.567 36 127.426 35.95 127.309 35.85C127.209 35.7333 127.159 35.5917 127.159 35.425V23.6C127.159 23.4333 127.209 23.2917 127.309 23.175C127.426 23.0583 127.567 23 127.734 23H128.884C129.051 23 129.192 23.0583 129.309 23.175C129.426 23.2917 129.484 23.4333 129.484 23.6V24.7C130.167 23.5667 131.334 23 132.984 23H133.959C134.126 23 134.259 23.0583 134.359 23.175C134.476 23.275 134.534 23.4083 134.534 23.575V24.6C134.534 24.7667 134.476 24.9 134.359 25C134.259 25.1 134.126 25.15 133.959 25.15H132.459C131.559 25.15 130.851 25.4167 130.334 25.95C129.817 26.4667 129.559 27.175 129.559 28.075V35.425C129.559 35.5917 129.501 35.7333 129.384 35.85C129.267 35.95 129.126 36 128.959 36H127.734ZM141.731 36C139.098 36 137.781 34.5333 137.781 31.6V25H135.831C135.664 25 135.523 24.95 135.406 24.85C135.306 24.7333 135.256 24.5917 135.256 24.425V23.575C135.256 23.4083 135.306 23.275 135.406 23.175C135.523 23.0583 135.664 23 135.831 23H137.781V18.825C137.781 18.6583 137.831 18.525 137.931 18.425C138.048 18.3083 138.189 18.25 138.356 18.25H139.531C139.698 18.25 139.831 18.3083 139.931 18.425C140.048 18.525 140.106 18.6583 140.106 18.825V23H143.206C143.373 23 143.506 23.0583 143.606 23.175C143.723 23.275 143.781 23.4083 143.781 23.575V24.425C143.781 24.5917 143.723 24.7333 143.606 24.85C143.506 24.95 143.373 25 143.206 25H140.106V31.425C140.106 32.2583 140.248 32.8917 140.531 33.325C140.814 33.7417 141.281 33.95 141.931 33.95H143.456C143.623 33.95 143.756 34.0083 143.856 34.125C143.973 34.225 144.031 34.3583 144.031 34.525V35.425C144.031 35.5917 143.973 35.7333 143.856 35.85C143.756 35.95 143.623 36 143.456 36H141.731ZM151.747 36.25C149.913 36.25 148.488 35.7333 147.472 34.7C146.472 33.6667 145.938 32.2917 145.872 30.575L145.847 29.5L145.872 28.425C145.938 26.725 146.48 25.3583 147.497 24.325C148.513 23.275 149.93 22.75 151.747 22.75C153.563 22.75 154.98 23.275 155.997 24.325C157.013 25.3583 157.555 26.725 157.622 28.425C157.638 28.6083 157.647 28.9667 157.647 29.5C157.647 30.0333 157.638 30.3917 157.622 30.575C157.555 32.2917 157.013 33.6667 155.997 34.7C154.997 35.7333 153.58 36.25 151.747 36.25ZM151.747 34.325C152.797 34.325 153.622 33.9917 154.222 33.325C154.838 32.6583 155.172 31.7 155.222 30.45C155.238 30.2833 155.247 29.9667 155.247 29.5C155.247 29.0333 155.238 28.7167 155.222 28.55C155.172 27.3 154.838 26.3417 154.222 25.675C153.622 25.0083 152.797 24.675 151.747 24.675C150.697 24.675 149.863 25.0083 149.247 25.675C148.63 26.3417 148.305 27.3 148.272 28.55L148.247 29.5L148.272 30.45C148.305 31.7 148.63 32.6583 149.247 33.325C149.863 33.9917 150.697 34.325 151.747 34.325ZM165.627 36.25C164.044 36.25 162.819 35.7417 161.952 34.725C161.086 33.6917 160.652 32.325 160.652 30.625V23.575C160.652 23.4083 160.702 23.275 160.802 23.175C160.919 23.0583 161.061 23 161.227 23H162.477C162.644 23 162.777 23.0583 162.877 23.175C162.994 23.275 163.052 23.4083 163.052 23.575V30.5C163.052 32.9833 164.136 34.225 166.302 34.225C167.352 34.225 168.186 33.9 168.802 33.25C169.419 32.5833 169.727 31.6667 169.727 30.5V23.575C169.727 23.4083 169.777 23.275 169.877 23.175C169.994 23.0583 170.136 23 170.302 23H171.552C171.719 23 171.852 23.0583 171.952 23.175C172.052 23.275 172.102 23.4083 172.102 23.575V35.425C172.102 35.5917 172.052 35.7333 171.952 35.85C171.852 35.95 171.719 36 171.552 36H170.377C170.211 36 170.069 35.95 169.952 35.85C169.852 35.7333 169.802 35.5917 169.802 35.425V34.325C169.336 34.9583 168.769 35.4417 168.102 35.775C167.436 36.0917 166.611 36.25 165.627 36.25ZM176.391 36C176.225 36 176.083 35.95 175.966 35.85C175.866 35.7333 175.816 35.5917 175.816 35.425V23.6C175.816 23.4333 175.866 23.2917 175.966 23.175C176.083 23.0583 176.225 23 176.391 23H177.541C177.708 23 177.85 23.0583 177.966 23.175C178.083 23.2917 178.141 23.4333 178.141 23.6V24.7C178.825 23.5667 179.991 23 181.641 23H182.616C182.783 23 182.916 23.0583 183.016 23.175C183.133 23.275 183.191 23.4083 183.191 23.575V24.6C183.191 24.7667 183.133 24.9 183.016 25C182.916 25.1 182.783 25.15 182.616 25.15H181.116C180.216 25.15 179.508 25.4167 178.991 25.95C178.475 26.4667 178.216 27.175 178.216 28.075V35.425C178.216 35.5917 178.158 35.7333 178.041 35.85C177.925 35.95 177.783 36 177.616 36H176.391ZM189.813 36.25C188.647 36.25 187.663 36.0667 186.863 35.7C186.08 35.3167 185.488 34.8833 185.088 34.4C184.705 33.9167 184.513 33.5167 184.513 33.2C184.513 33.0333 184.572 32.9083 184.688 32.825C184.822 32.725 184.955 32.675 185.088 32.675H186.213C186.38 32.675 186.53 32.7583 186.663 32.925C187.063 33.3917 187.497 33.7583 187.963 34.025C188.43 34.2917 189.055 34.425 189.838 34.425C190.705 34.425 191.405 34.2583 191.938 33.925C192.488 33.575 192.763 33.1 192.763 32.5C192.763 32.1 192.647 31.775 192.413 31.525C192.197 31.2583 191.813 31.0333 191.263 30.85C190.73 30.65 189.93 30.4333 188.863 30.2C187.413 29.8833 186.38 29.425 185.763 28.825C185.163 28.225 184.863 27.45 184.863 26.5C184.863 25.8667 185.047 25.2667 185.413 24.7C185.797 24.1167 186.347 23.65 187.063 23.3C187.797 22.9333 188.672 22.75 189.688 22.75C190.755 22.75 191.663 22.925 192.413 23.275C193.163 23.625 193.722 24.0417 194.088 24.525C194.472 24.9917 194.663 25.3833 194.663 25.7C194.663 25.85 194.605 25.975 194.488 26.075C194.388 26.175 194.263 26.225 194.113 26.225H193.063C192.863 26.225 192.697 26.1417 192.563 25.975C192.297 25.6583 192.063 25.4167 191.863 25.25C191.68 25.0667 191.405 24.9083 191.038 24.775C190.688 24.6417 190.238 24.575 189.688 24.575C188.888 24.575 188.272 24.75 187.838 25.1C187.405 25.4333 187.188 25.875 187.188 26.425C187.188 26.775 187.28 27.075 187.463 27.325C187.647 27.5583 187.997 27.775 188.513 27.975C189.047 28.175 189.813 28.3833 190.813 28.6C192.397 28.9333 193.513 29.4167 194.163 30.05C194.83 30.6667 195.163 31.4583 195.163 32.425C195.163 33.1417 194.955 33.7917 194.538 34.375C194.122 34.9583 193.505 35.4167 192.688 35.75C191.888 36.0833 190.93 36.25 189.813 36.25ZM198.008 36C197.841 36 197.699 35.95 197.583 35.85C197.483 35.7333 197.433 35.5917 197.433 35.425V34.625C197.433 34.2417 197.641 33.875 198.058 33.525L203.358 28.225C204.641 27.1583 205.524 26.2917 206.008 25.625C206.491 24.9417 206.733 24.225 206.733 23.475C206.733 22.5083 206.458 21.75 205.908 21.2C205.374 20.65 204.591 20.375 203.558 20.375C202.591 20.375 201.816 20.6667 201.233 21.25C200.649 21.8167 200.291 22.575 200.158 23.525C200.124 23.725 200.041 23.875 199.908 23.975C199.791 24.0583 199.658 24.1 199.508 24.1H198.208C198.058 24.1 197.933 24.0583 197.833 23.975C197.733 23.875 197.683 23.7583 197.683 23.625C197.716 22.725 197.958 21.8667 198.408 21.05C198.858 20.2167 199.516 19.5417 200.383 19.025C201.266 18.4917 202.324 18.225 203.558 18.225C205.441 18.225 206.858 18.7167 207.808 19.7C208.774 20.6667 209.258 21.9 209.258 23.4C209.258 24.45 208.991 25.4 208.458 26.25C207.941 27.0833 207.133 27.9833 206.033 28.95L201.233 33.825H209.033C209.216 33.825 209.358 33.8833 209.458 34C209.574 34.1 209.633 34.2333 209.633 34.4V35.425C209.633 35.5917 209.574 35.7333 209.458 35.85C209.341 35.95 209.199 36 209.033 36H198.008ZM220.661 36C220.495 36 220.353 35.95 220.236 35.85C220.136 35.7333 220.086 35.5917 220.086 35.425V31.825H211.986C211.82 31.825 211.678 31.775 211.561 31.675C211.461 31.5583 211.411 31.4167 211.411 31.25V30.25C211.411 30 211.503 29.75 211.686 29.5L219.186 18.925C219.27 18.7917 219.395 18.6917 219.561 18.625C219.728 18.5417 219.911 18.5 220.111 18.5H221.911C222.078 18.5 222.211 18.5583 222.311 18.675C222.428 18.775 222.486 18.9083 222.486 19.075V29.65H224.736C224.903 29.65 225.045 29.7083 225.161 29.825C225.278 29.925 225.336 30.0583 225.336 30.225V31.25C225.336 31.4167 225.278 31.5583 225.161 31.675C225.061 31.775 224.928 31.825 224.761 31.825H222.486V35.425C222.486 35.5917 222.428 35.7333 222.311 35.85C222.211 35.95 222.078 36 221.911 36H220.661ZM220.111 29.7V21.125L214.086 29.7H220.111Z" fill="url(#paint2_linear)" fill-opacity="0.9"/>
</g>
<defs>
<filter id="filter0_d" x="1" y="0" width="62" height="61" filterUnits="userSpaceOnUse" color-interpolation-filters="sRGB">
<feFlood flood-opacity="0" result="BackgroundImageFix"/>
<feColorMatrix in="SourceAlpha" type="matrix" values="0 0 0 0 0 0 0 0 0 0 0 0 0 0 0 0 0 0 127 0"/>
<feOffset dx="3" dy="3"/>
<feGaussianBlur stdDeviation="1"/>
<feColorMatrix type="matrix" values="0 0 0 0 0 0 0 0 0 0 0 0 0 0 0 0 0 0 0.44 0"/>
<feBlend mode="normal" in2="BackgroundImageFix" result="effect1_dropShadow"/>
<feBlend mode="normal" in="SourceGraphic" in2="effect1_dropShadow" result="shape"/>
</filter>
<filter id="filter1_d" x="0" y="6" width="63.7052" height="51.4946" filterUnits="userSpaceOnUse" color-interpolation-filters="sRGB">
<feFlood flood-opacity="0" result="BackgroundImageFix"/>
<feColorMatrix in="SourceAlpha" type="matrix" values="0 0 0 0 0 0 0 0 0 0 0 0 0 0 0 0 0 0 127 0"/>
<feOffset dx="3" dy="3"/>
<feGaussianBlur stdDeviation="1.5"/>
<feColorMatrix type="matrix" values="0 0 0 0 0 0 0 0 0 0 0 0 0 0 0 0 0 0 0.79 0"/>
<feBlend mode="normal" in2="BackgroundImageFix" result="effect1_dropShadow"/>
<feBlend mode="normal" in="SourceGraphic" in2="effect1_dropShadow" result="shape"/>
</filter>
<filter id="filter2_d" x="66.8867" y="18.2246" width="161.45" height="25.525" filterUnits="userSpaceOnUse" color-interpolation-filters="sRGB">
<feFlood flood-opacity="0" result="BackgroundImageFix"/>
<feColorMatrix in="SourceAlpha" type="matrix" values="0 0 0 0 0 0 0 0 0 0 0 0 0 0 0 0 0 0 127 0"/>
<feOffset dx="2" dy="2"/>
<feGaussianBlur stdDeviation="0.5"/>
<feColorMatrix type="matrix" values="0 0 0 0 0 0 0 0 0 0 0 0 0 0 0 0 0 0 0.77 0"/>
<feBlend mode="normal" in2="BackgroundImageFix" result="effect1_dropShadow"/>
<feBlend mode="normal" in="SourceGraphic" in2="effect1_dropShadow" result="shape"/>
</filter>
<linearGradient id="paint0_linear" x1="98" y1="0" x2="-18" y2="0" gradientUnits="userSpaceOnUse">
<stop stop-color="#FF0000"/>
<stop offset="1" stop-color="#FFB800" stop-opacity="0.54"/>
</linearGradient>
<linearGradient id="paint1_linear" x1="77" y1="-30.3379" x2="-41" y2="5.66211" gradientUnits="userSpaceOnUse">
<stop stop-color="#FF0000"/>
<stop offset="1" stop-color="#FFC700"/>
</linearGradient>
<linearGradient id="paint2_linear" x1="101.613" y1="2" x2="176.516" y2="2" gradientUnits="userSpaceOnUse">
<stop stop-color="#D23200"/>
<stop offset="1" stop-color="#FFA800" stop-opacity="0.98"/>
</linearGradient>
</defs>
</svg>
